<svg width="118" height="22" viewBox="0 0 118 22" fill="none" xmlns="http://www.w3.org/2000/svg">
<path opacity="0.3" d="M1.023 7.322H4.18C4.818 7.322 5.31667 7.50167 5.676 7.861C6.04267 8.22033 6.226 8.70067 6.226 9.302C6.226 9.588 6.18567 9.83 6.105 10.028C6.02433 10.226 5.92167 10.391 5.797 10.523C5.67233 10.6477 5.53667 10.743 5.39 10.809C5.24333 10.8677 5.10767 10.908 4.983 10.93V10.996C5.12233 11.0033 5.27633 11.04 5.445 11.106C5.621 11.172 5.786 11.2783 5.94 11.425C6.094 11.5643 6.22233 11.7477 6.325 11.975C6.435 12.195 6.49 12.4627 6.49 12.778C6.49 13.0933 6.43867 13.3867 6.336 13.658C6.24067 13.9293 6.105 14.164 5.929 14.362C5.753 14.56 5.544 14.7177 5.302 14.835C5.06 14.945 4.796 15 4.51 15H1.023V7.322ZM1.947 14.186H4.224C4.62 14.186 4.93167 14.087 5.159 13.889C5.38633 13.6837 5.5 13.3867 5.5 12.998V12.624C5.5 12.2353 5.38633 11.942 5.159 11.744C4.93167 11.5387 4.62 11.436 4.224 11.436H1.947V14.186ZM1.947 10.644H4.07C4.43667 10.644 4.72267 10.5523 4.928 10.369C5.13333 10.1857 5.236 9.92167 5.236 9.577V9.203C5.236 8.85833 5.13333 8.59433 4.928 8.411C4.72267 8.22767 4.43667 8.136 4.07 8.136H1.947V10.644ZM11.6195 14.076H11.5755C11.5169 14.208 11.4435 14.34 11.3555 14.472C11.2749 14.5967 11.1722 14.7103 11.0475 14.813C10.9229 14.9083 10.7725 14.9853 10.5965 15.044C10.4205 15.1027 10.2152 15.132 9.98052 15.132C9.39386 15.132 8.92819 14.945 8.58352 14.571C8.23886 14.1897 8.06652 13.6543 8.06652 12.965V9.324H8.94652V12.811C8.94652 13.8303 9.37919 14.34 10.2445 14.34C10.4205 14.34 10.5892 14.318 10.7505 14.274C10.9192 14.23 11.0659 14.164 11.1905 14.076C11.3225 13.988 11.4252 13.878 11.4985 13.746C11.5792 13.6067 11.6195 13.4417 11.6195 13.251V9.324H12.4995V15H11.6195V14.076ZM14.8135 7.993C14.6228 7.993 14.4835 7.949 14.3955 7.861C14.3148 7.76567 14.2745 7.64467 14.2745 7.498V7.355C14.2745 7.20833 14.3148 7.091 14.3955 7.003C14.4835 6.90767 14.6228 6.86 14.8135 6.86C15.0041 6.86 15.1398 6.90767 15.2205 7.003C15.3085 7.091 15.3525 7.20833 15.3525 7.355V7.498C15.3525 7.64467 15.3085 7.76567 15.2205 7.861C15.1398 7.949 15.0041 7.993 14.8135 7.993ZM14.3735 9.324H15.2535V15H14.3735V9.324ZM18.0585 15C17.7505 15 17.5158 14.9157 17.3545 14.747C17.2005 14.571 17.1235 14.351 17.1235 14.087V6.86H18.0035V14.23H18.8395V15H18.0585ZM21.3208 15C21.0128 15 20.7782 14.9157 20.6168 14.747C20.4628 14.571 20.3858 14.3437 20.3858 14.065V10.094H19.4508V9.324H19.9788C20.1695 9.324 20.2978 9.28733 20.3638 9.214C20.4372 9.13333 20.4738 8.99767 20.4738 8.807V7.751H21.2658V9.324H22.5088V10.094H21.2658V14.23H22.4208V15H21.3208ZM26.5229 6.86H27.4029V10.248H27.4469C27.5936 9.88867 27.8062 9.62467 28.0849 9.456C28.3709 9.28 28.7119 9.192 29.1079 9.192C29.4599 9.192 29.7789 9.26167 30.0649 9.401C30.3509 9.54033 30.5929 9.73833 30.7909 9.995C30.9962 10.2517 31.1502 10.5633 31.2529 10.93C31.3629 11.2967 31.4179 11.7073 31.4179 12.162C31.4179 12.6167 31.3629 13.0273 31.2529 13.394C31.1502 13.7607 30.9962 14.0723 30.7909 14.329C30.5929 14.5857 30.3509 14.7837 30.0649 14.923C29.7789 15.0623 29.4599 15.132 29.1079 15.132C28.3379 15.132 27.7842 14.78 27.4469 14.076H27.4029V15H26.5229V6.86ZM28.8659 14.34C29.3646 14.34 29.7569 14.186 30.0429 13.878C30.3289 13.5627 30.4719 13.152 30.4719 12.646V11.678C30.4719 11.172 30.3289 10.765 30.0429 10.457C29.7569 10.1417 29.3646 9.984 28.8659 9.984C28.6679 9.984 28.4772 10.0133 28.2939 10.072C28.1179 10.1233 27.9639 10.1967 27.8319 10.292C27.6999 10.3873 27.5936 10.5047 27.5129 10.644C27.4396 10.776 27.4029 10.919 27.4029 11.073V13.185C27.4029 13.3683 27.4396 13.5333 27.5129 13.68C27.5936 13.8193 27.6999 13.9403 27.8319 14.043C27.9639 14.1383 28.1179 14.2117 28.2939 14.263C28.4772 14.3143 28.6679 14.34 28.8659 14.34ZM36.348 9.324H37.217L34.676 16.32C34.61 16.4887 34.544 16.628 34.478 16.738C34.412 16.8553 34.3314 16.947 34.236 17.013C34.1407 17.079 34.0197 17.1267 33.873 17.156C33.7337 17.1853 33.5614 17.2 33.356 17.2H32.905V16.43H33.796L34.225 15.22L32.102 9.324H32.982L34.346 13.185L34.61 14.109H34.665L34.973 13.185L36.348 9.324Z" fill="white"/>
<g opacity="0.3">
<g clip-path="url(#clip0)">
<path d="M48.1506 19.6897C46.9869 19.6897 46.0449 18.7174 46.0449 17.5165V4.48357C46.0449 3.28259 46.9869 2.31036 48.1506 2.31036L53.421 2.31672C58.1065 2.31672 61.8993 6.26916 61.8377 11.1176C61.7761 15.8897 57.9218 19.6897 53.2979 19.6897H48.1506Z" fill="white"/>
<path d="M49.2202 15.8897H48.9493C48.8016 15.8897 48.6846 15.769 48.6846 15.6165V13.4369C48.6846 13.2844 48.8016 13.1637 48.9493 13.1637H51.0612C51.209 13.1637 51.3259 13.2844 51.3259 13.4369V13.7165C51.3259 14.9175 50.3839 15.8897 49.2202 15.8897Z" fill="#11181F"/>
<path d="M48.9495 9.36373H55.5314C56.6951 9.36373 57.6371 8.39151 57.6371 7.19052V6.92999C57.6371 6.77113 57.5139 6.64404 57.36 6.64404H50.7966C49.6329 6.64404 48.6909 7.61627 48.6909 8.81725V9.09049C48.6909 9.243 48.8079 9.36373 48.9495 9.36373Z" fill="#11181F"/>
<path d="M48.9493 12.6236H52.3726C53.5363 12.6236 54.4783 11.6513 54.4783 10.4503V10.1771C54.4783 10.0246 54.3614 9.90387 54.2136 9.90387H48.9493C48.8016 9.90387 48.6846 10.0246 48.6846 10.1771V12.3503C48.6907 12.5028 48.8077 12.6236 48.9493 12.6236Z" fill="#11181F"/>
<path d="M66.8145 4.33135H68.6236C68.9401 4.33135 69.229 4.38166 69.4904 4.48227C69.7518 4.58289 69.9742 4.73381 70.1576 4.93505C70.3411 5.13171 70.4832 5.38097 70.5841 5.68282C70.685 5.98009 70.7355 6.32768 70.7355 6.72557C70.7355 7.12347 70.685 7.47334 70.5841 7.77519C70.4832 8.07247 70.3411 8.32173 70.1576 8.52296C69.9742 8.71962 69.7518 8.86826 69.4904 8.96888C69.229 9.06949 68.9401 9.1198 68.6236 9.1198H66.8145V4.33135ZM68.6236 8.19367C68.9355 8.19367 69.1808 8.10677 69.3597 7.93298C69.5385 7.75919 69.628 7.4802 69.628 7.09603V6.35512C69.628 5.97095 69.5385 5.69196 69.3597 5.51817C69.1808 5.34438 68.9355 5.25748 68.6236 5.25748H67.8601V8.19367H68.6236Z" fill="white"/>
<path d="M72.2064 9.1198L71.1195 4.33135H72.1514L72.6054 6.62953L72.8599 7.96042H72.8805L73.1832 6.62953L73.7129 4.33135H74.8548L75.3914 6.62953L75.6872 7.96042H75.7078L75.9623 6.62953L76.4232 4.33135H77.4138L76.2994 9.1198H75.1093L74.504 6.52663L74.2701 5.47701H74.2494L74.0087 6.52663L73.4033 9.1198H72.2064Z" fill="white"/>
<path d="M80.9037 9.1198L80.5598 7.981H78.957L78.613 9.1198H77.5537L79.1358 4.33135H80.4291L81.9906 9.1198H80.9037ZM79.7687 5.27806H79.7343L79.2046 7.09603H80.3053L79.7687 5.27806Z" fill="white"/>
<path d="M83.7005 9.1198H82.6549V4.33135H84.9319C85.152 4.33135 85.3515 4.36793 85.5303 4.44111C85.7092 4.51429 85.8605 4.61948 85.9843 4.75668C86.1128 4.88931 86.2114 5.04939 86.2801 5.2369C86.3489 5.42441 86.3833 5.63251 86.3833 5.86118C86.3833 6.1859 86.3099 6.46946 86.1632 6.71185C86.021 6.95425 85.8032 7.13033 85.5097 7.24009L86.4521 9.1198H85.2896L84.4503 7.36358H83.7005V9.1198ZM84.8012 6.48547C84.9571 6.48547 85.0786 6.44659 85.1657 6.36884C85.2575 6.28652 85.3033 6.16761 85.3033 6.01211V5.71026C85.3033 5.55476 85.2575 5.43813 85.1657 5.36038C85.0786 5.27806 84.9571 5.2369 84.8012 5.2369H83.7005V6.48547H84.8012Z" fill="white"/>
<path d="M88.1963 9.1198L86.6485 4.33135H87.7079L88.4233 6.62953L88.8017 8.13193H88.8223L89.1869 6.62953L89.9023 4.33135H90.9273L89.3657 9.1198H88.1963Z" fill="white"/>
<path d="M91.5559 9.1198V4.33135H94.8235V5.25748H92.6015V6.2385H94.507V7.15777H92.6015V8.19367H94.8235V9.1198H91.5559Z" fill="white"/>
<path d="M97.289 9.20213C96.8671 9.20213 96.5094 9.13124 96.2159 8.98946C95.9224 8.84311 95.6725 8.65559 95.4661 8.42692L96.154 7.73403C96.4796 8.09991 96.8809 8.28285 97.3578 8.28285C97.6146 8.28285 97.805 8.23026 97.9288 8.12507C98.0526 8.01988 98.1145 7.88038 98.1145 7.70659C98.1145 7.57396 98.0778 7.4642 98.0044 7.3773C97.9311 7.28583 97.782 7.22409 97.5573 7.19207L97.0827 7.13033C96.5736 7.0663 96.1999 6.91309 95.9614 6.67069C95.7275 6.4283 95.6106 6.10587 95.6106 5.7034C95.6106 5.48844 95.6518 5.29178 95.7344 5.11342C95.8169 4.93505 95.9339 4.78184 96.0852 4.65378C96.2411 4.52572 96.4292 4.42739 96.6493 4.35879C96.874 4.28561 97.1285 4.24902 97.4129 4.24902C97.7751 4.24902 98.0939 4.30619 98.369 4.42053C98.6442 4.53487 98.8804 4.7018 99.0776 4.92133L98.3828 5.62107C98.2681 5.48844 98.1283 5.38097 97.9632 5.29864C97.8027 5.21175 97.5986 5.1683 97.3509 5.1683C97.1171 5.1683 96.9428 5.20946 96.8281 5.29178C96.7135 5.3741 96.6562 5.48844 96.6562 5.63479C96.6562 5.79944 96.6997 5.91835 96.7869 5.99153C96.8786 6.0647 97.0253 6.1173 97.2271 6.14931L97.7018 6.22478C98.1971 6.30253 98.5639 6.45574 98.8024 6.68441C99.0409 6.90851 99.1601 7.22866 99.1601 7.64485C99.1601 7.87352 99.1188 8.0839 99.0363 8.27599C98.9537 8.46808 98.8322 8.63273 98.6717 8.76993C98.5158 8.90714 98.3209 9.01461 98.087 9.09236C97.8531 9.16554 97.5871 9.20213 97.289 9.20213Z" fill="white"/>
<path d="M66.8145 17.4029V12.6145H69.9994V13.5406H67.8601V14.5216H69.683V15.4409H67.8601V17.4029H66.8145Z" fill="white"/>
<path d="M72.5563 17.4852C72.2398 17.4852 71.9509 17.4327 71.6895 17.3275C71.4281 17.2223 71.2057 17.0668 71.0222 16.861C70.8388 16.6506 70.6966 16.3922 70.5957 16.0858C70.4949 15.7748 70.4444 15.4157 70.4444 15.0087C70.4444 14.6017 70.4949 14.2449 70.5957 13.9385C70.6966 13.6275 70.8388 13.3691 71.0222 13.1633C71.2057 12.9529 71.4281 12.7951 71.6895 12.6899C71.9509 12.5847 72.2398 12.5321 72.5563 12.5321C72.8727 12.5321 73.1616 12.5847 73.423 12.6899C73.6844 12.7951 73.9068 12.9529 74.0903 13.1633C74.2737 13.3691 74.4159 13.6275 74.5168 13.9385C74.6177 14.2449 74.6681 14.6017 74.6681 15.0087C74.6681 15.4157 74.6177 15.7748 74.5168 16.0858C74.4159 16.3922 74.2737 16.6506 74.0903 16.861C73.9068 17.0668 73.6844 17.2223 73.423 17.3275C73.1616 17.4327 72.8727 17.4852 72.5563 17.4852ZM72.5563 16.5591C72.8727 16.5591 73.118 16.4562 73.2923 16.2504C73.4712 16.0446 73.5606 15.7496 73.5606 15.3654V14.652C73.5606 14.2678 73.4712 13.9728 73.2923 13.767C73.118 13.5612 72.8727 13.4583 72.5563 13.4583C72.2398 13.4583 71.9922 13.5612 71.8133 13.767C71.6391 13.9728 71.5519 14.2678 71.5519 14.652V15.3654C71.5519 15.7496 71.6391 16.0446 71.8133 16.2504C71.9922 16.4562 72.2398 16.5591 72.5563 16.5591Z" fill="white"/>
<path d="M76.5314 12.6145V15.5507C76.5314 15.8891 76.5979 16.1429 76.7309 16.3121C76.8639 16.4768 77.0863 16.5591 77.3981 16.5591C77.71 16.5591 77.9324 16.4768 78.0654 16.3121C78.1984 16.1429 78.2649 15.8891 78.2649 15.5507V12.6145H79.283V15.4409C79.283 15.7931 79.2486 16.0995 79.1798 16.3602C79.1156 16.6163 79.0078 16.8289 78.8565 16.9982C78.7051 17.1628 78.5102 17.2863 78.2718 17.3686C78.0333 17.4464 77.7421 17.4852 77.3981 17.4852C77.0542 17.4852 76.763 17.4464 76.5245 17.3686C76.286 17.2863 76.0911 17.1628 75.9398 16.9982C75.7885 16.8289 75.6784 16.6163 75.6096 16.3602C75.5454 16.0995 75.5133 15.7931 75.5133 15.4409V12.6145H76.5314Z" fill="white"/>
<path d="M81.7824 15.139L81.3215 14.1786H81.3008V17.4029H80.3171V12.6145H81.459L82.7729 14.8783L83.2338 15.8388H83.2545V12.6145H84.2382V17.4029H83.0962L81.7824 15.139Z" fill="white"/>
<path d="M85.295 12.6145H87.1042C87.4206 12.6145 87.7095 12.6648 87.9709 12.7654C88.2323 12.866 88.4547 13.0169 88.6382 13.2182C88.8216 13.4148 88.9638 13.6641 89.0647 13.9659C89.1656 14.2632 89.216 14.6108 89.216 15.0087C89.216 15.4066 89.1656 15.7565 89.0647 16.0583C88.9638 16.3556 88.8216 16.6048 88.6382 16.8061C88.4547 17.0027 88.2323 17.1514 87.9709 17.252C87.7095 17.3526 87.4206 17.4029 87.1042 17.4029H85.295V12.6145ZM87.1042 16.4768C87.416 16.4768 87.6614 16.3899 87.8402 16.2161C88.0191 16.0423 88.1085 15.7633 88.1085 15.3791V14.6382C88.1085 14.2541 88.0191 13.9751 87.8402 13.8013C87.6614 13.6275 87.416 13.5406 87.1042 13.5406H86.3406V16.4768H87.1042Z" fill="white"/>
<path d="M92.7942 17.4029L92.4502 16.2641H90.8474L90.5035 17.4029H89.4441L91.0263 12.6145H92.3195L93.881 17.4029H92.7942ZM91.6591 13.5612H91.6247L91.095 15.3791H92.1957L91.6591 13.5612Z" fill="white"/>
<path d="M96.097 13.5406V17.4029H95.0514V13.5406H93.7513V12.6145H97.3972V13.5406H96.097Z" fill="white"/>
<path d="M97.8999 17.4029V16.5728H98.519V13.4446H97.8999V12.6145H100.184V13.4446H99.5646V16.5728H100.184V17.4029H97.8999Z" fill="white"/>
<path d="M102.981 17.4852C102.665 17.4852 102.376 17.4327 102.114 17.3275C101.853 17.2223 101.63 17.0668 101.447 16.861C101.264 16.6506 101.121 16.3922 101.02 16.0858C100.92 15.7748 100.869 15.4157 100.869 15.0087C100.869 14.6017 100.92 14.2449 101.02 13.9385C101.121 13.6275 101.264 13.3691 101.447 13.1633C101.63 12.9529 101.853 12.7951 102.114 12.6899C102.376 12.5847 102.665 12.5321 102.981 12.5321C103.297 12.5321 103.586 12.5847 103.848 12.6899C104.109 12.7951 104.332 12.9529 104.515 13.1633C104.698 13.3691 104.841 13.6275 104.941 13.9385C105.042 14.2449 105.093 14.6017 105.093 15.0087C105.093 15.4157 105.042 15.7748 104.941 16.0858C104.841 16.3922 104.698 16.6506 104.515 16.861C104.332 17.0668 104.109 17.2223 103.848 17.3275C103.586 17.4327 103.297 17.4852 102.981 17.4852ZM102.981 16.5591C103.297 16.5591 103.543 16.4562 103.717 16.2504C103.896 16.0446 103.985 15.7496 103.985 15.3654V14.652C103.985 14.2678 103.896 13.9728 103.717 13.767C103.543 13.5612 103.297 13.4583 102.981 13.4583C102.665 13.4583 102.417 13.5612 102.238 13.767C102.064 13.9728 101.977 14.2678 101.977 14.652V15.3654C101.977 15.7496 102.064 16.0446 102.238 16.2504C102.417 16.4562 102.665 16.5591 102.981 16.5591Z" fill="white"/>
<path d="M107.431 15.139L106.97 14.1786H106.949V17.4029H105.966V12.6145H107.107L108.421 14.8783L108.882 15.8388H108.903V12.6145H109.887V17.4029H108.745L107.431 15.139Z" fill="white"/>
</g>
</g>
<defs>
<clipPath id="clip0">
<rect x="46" y="2.31036" width="72" height="17.3793" fill="white"/>
</clipPath>
</defs>
</svg>
