<svg width="36" height="36" viewBox="0 0 36 36" fill="none" xmlns="http://www.w3.org/2000/svg">
<rect opacity="0.15" width="36" height="36" rx="2" fill="white"/>
<path d="M24.5 11L11.5 11C11.0833 11 10.7292 11.1458 10.4375 11.4375C10.1458 11.7292 10 12.0833 10 12.5L10 23.5C10 23.9167 10.1458 24.2708 10.4375 24.5625C10.7292 24.8542 11.0833 25 11.5 25L24.5 25C24.9167 25 25.2708 24.8542 25.5625 24.5625C25.8542 24.2708 26 23.9167 26 23.5L26 12.5C26 12.0833 25.8542 11.7292 25.5625 11.4375C25.2708 11.1458 24.9167 11 24.5 11ZM24.3125 23.5L11.6875 23.5C11.6458 23.5 11.6042 23.4792 11.5625 23.4375C11.5208 23.3958 11.5 23.3542 11.5 23.3125L11.5 12.6875C11.5 12.6458 11.5208 12.6042 11.5625 12.5625C11.6042 12.5208 11.6458 12.5 11.6875 12.5L24.3125 12.5C24.3542 12.5 24.3958 12.5208 24.4375 12.5625C24.4792 12.6042 24.5 12.6458 24.5 12.6875L24.5 23.3125C24.5 23.3542 24.4792 23.3958 24.4375 23.4375C24.3958 23.4792 24.3542 23.5 24.3125 23.5ZM23 20.625V21.375C23 21.4792 22.9583 21.5729 22.875 21.6562C22.8125 21.7188 22.7292 21.75 22.625 21.75H16.375C16.2708 21.75 16.1771 21.7188 16.0938 21.6562C16.0312 21.5729 16 21.4792 16 21.375V20.625C16 20.5208 16.0312 20.4375 16.0938 20.375C16.1771 20.2917 16.2708 20.25 16.375 20.25H22.625C22.7292 20.25 22.8125 20.2917 22.875 20.375C22.9583 20.4375 23 20.5208 23 20.625ZM23 17.625V18.375C23 18.4792 22.9583 18.5729 22.875 18.6562C22.8125 18.7188 22.7292 18.75 22.625 18.75H16.375C16.2708 18.75 16.1771 18.7188 16.0938 18.6562C16.0312 18.5729 16 18.4792 16 18.375V17.625C16 17.5208 16.0312 17.4375 16.0938 17.375C16.1771 17.2917 16.2708 17.25 16.375 17.25H22.625C22.7292 17.25 22.8125 17.2917 22.875 17.375C22.9583 17.4375 23 17.5208 23 17.625ZM23 14.625V15.375C23 15.4792 22.9583 15.5729 22.875 15.6563C22.8125 15.7188 22.7292 15.75 22.625 15.75H16.375C16.2708 15.75 16.1771 15.7188 16.0938 15.6563C16.0312 15.5729 16 15.4792 16 15.375V14.625C16 14.5208 16.0312 14.4375 16.0938 14.375C16.1771 14.2917 16.2708 14.25 16.375 14.25H22.625C22.7292 14.25 22.8125 14.2917 22.875 14.375C22.9583 14.4375 23 14.5208 23 14.625ZM15.125 15C15.125 15.3125 15.0104 15.5833 14.7812 15.8125C14.5729 16.0208 14.3125 16.125 14 16.125C13.6875 16.125 13.4167 16.0208 13.1875 15.8125C12.9792 15.5833 12.875 15.3125 12.875 15C12.875 14.6875 12.9792 14.4271 13.1875 14.2188C13.4167 13.9896 13.6875 13.875 14 13.875C14.3125 13.875 14.5729 13.9896 14.7812 14.2188C15.0104 14.4271 15.125 14.6875 15.125 15ZM15.125 18C15.125 18.3125 15.0104 18.5833 14.7812 18.8125C14.5729 19.0208 14.3125 19.125 14 19.125C13.6875 19.125 13.4167 19.0208 13.1875 18.8125C12.9792 18.5833 12.875 18.3125 12.875 18C12.875 17.6875 12.9792 17.4271 13.1875 17.2188C13.4167 16.9896 13.6875 16.875 14 16.875C14.3125 16.875 14.5729 16.9896 14.7812 17.2188C15.0104 17.4271 15.125 17.6875 15.125 18ZM15.125 21C15.125 21.3125 15.0104 21.5833 14.7812 21.8125C14.5729 22.0208 14.3125 22.125 14 22.125C13.6875 22.125 13.4167 22.0208 13.1875 21.8125C12.9792 21.5833 12.875 21.3125 12.875 21C12.875 20.6875 12.9792 20.4271 13.1875 20.2188C13.4167 19.9896 13.6875 19.875 14 19.875C14.3125 19.875 14.5729 19.9896 14.7812 20.2188C15.0104 20.4271 15.125 20.6875 15.125 21Z" fill="white"/>
</svg>
